<?xml version="1.0" standalone="no"?><!DOCTYPE svg PUBLIC "-//W3C//DTD SVG 1.1//EN" "http://www.w3.org/Graphics/SVG/1.1/DTD/svg11.dtd"><svg t="1776150396274" class="icon" viewBox="0 0 1024 1024" version="1.1" xmlns="http://www.w3.org/2000/svg" p-id="1727" xmlns:xlink="http://www.w3.org/1999/xlink" width="200" height="200"><path d="M1002.37198222 345.51239111L530.29774222 65.06951111c-5.82656-3.21422222-12.24931555-4.87992889-18.67548444-4.7616-6.30442667-0.11832889-12.72718222 1.43018667-18.67662223 4.7616L21.34243555 345.69671111C3.37806222 355.80814222-3.16188445 379.00629333 6.82666667 397.08216889c10.11256889 18.19989333 32.95118222 24.74552889 50.91441778 14.63296l442.10176-263.61742222a22.86478222 22.86478222 0 0 1 23.67374222 0L965.97333333 411.53194667c17.95868445 10.11256889 40.91904 3.56579555 50.90872889-14.63296 9.99424-18.07701333 3.44974222-41.27402667-14.51008-51.38659556z m0 0M395.16615111 836.36565333c0 7.96899555-6.42275555 14.39744-14.27342222 14.39744H250.75712c-7.85180445 0-14.27342222-6.42730667-14.27342222-14.39744V705.04106667c0-7.96899555 6.42275555-14.39061333 14.27342222-14.39061334h130.25393778c7.85180445 0 14.27342222 6.42161778 14.27342222 14.39061334l-0.11832889 131.32458666z m0-209.95413333c0 7.96899555-6.42275555 14.39630222-14.27342222 14.39630222H250.75712c-7.85180445 0-14.27342222-6.42616889-14.27342222-14.39630222V495.08693333c0-7.96899555 6.42275555-14.39175111 14.27342222-14.39175111h130.25393778c7.85180445 0 14.27342222 6.42275555 14.27342222 14.39175111l-0.11832889 131.32458667z m206.74104889 209.95413333c0 7.96899555-6.42161778 14.39744-14.27342222 14.39744h-130.2528c-7.85294222 0-14.27342222-6.42730667-14.27342223-14.39744V705.04106667c0-7.96899555 6.42161778-14.39061333 14.27342223-14.39061334h130.25166222c7.85294222 0 14.27342222 6.42161778 14.27342222 14.39061334v131.32458666z m0-209.95413333c0 7.96899555-6.42161778 14.39630222-14.27342222 14.39630222h-130.2528c-7.85294222 0-14.27342222-6.42616889-14.27342223-14.39630222V495.08693333c0-7.96899555 6.42161778-14.39175111 14.27342223-14.39175111h130.25166222c7.85294222 0 14.27342222 6.42275555 14.27342222 14.39175111v131.32458667z m236.24248889-29.73696c-1.66684445-3.92647111-2.61347555-8.20565333-2.61347556-12.72718222 0-18.08156445 14.63182222-32.71338667 32.70883556-32.71338667 18.08270222 0 32.71452445 14.63182222 32.71452444 32.71338667 0 18.07701333-14.63182222 32.70997333-32.71452444 32.70997333-13.55662222 0-25.09824-8.20565333-30.09536-19.98279111" fill="#1296db" p-id="1728"></path><path d="M900.95957333 584.18403555V462.84913778c0-20.46065778-10.70648889-39.25447111-28.19413333-49.48423111L540.29198222 217.80707555a55.79662222 55.79662222 0 0 0-28.55253333-7.85294222 55.78410667 55.78410667 0 0 0-28.54684444 7.85294222L150.4768 413.36490667c-17.37045333 10.22976-28.19527111 29.02357333-28.19527111 49.48423111v444.89045333c0 31.64273778 25.45777778 57.33603555 56.86499556 57.33603556h391.59352888c0.35953778 0 0.71793778 0 1.07178667-0.11832889V899.65226667H187.58883555V467.48785778l324.03342223-190.56184889 323.91509333 190.44465778v115.98392888" fill="#1296db" p-id="1729"></path><path d="M541.12256 945.09169778a32.44373333 32.44373333 0 0 1-2.61347555-12.73059556c0-18.07587555 14.62727111-32.70883555 32.70997333-32.70883555 18.08156445 0 32.71338667 14.63182222 32.71338667 32.70883555 0 18.08270222-14.63182222 32.71452445-32.71338667 32.71452445-13.44056889 0-25.09937778-8.20565333-30.09649778-19.98392889M1001.71662222 675.30524445c-0.71793778-3.09475555-1.54851555-5.83224889-2.50083555-8.20906667-3.68526222-7.85294222-8.79957333-15.34634667-15.34520889-22.60309333-6.66282667-7.13500445-12.72604445-12.24931555-18.19989333-15.104-2.61916445-1.31185778-5.59217778-2.50083555-9.15797334-3.57148445a42.23431111 42.23431111 0 0 0-10.94200889-1.78403555c-3.80814222-0.11832889-7.61628445 0.35953778-11.54275555 1.54851555-3.92533333 1.18897778-7.72892445 3.21308445-11.30040889 6.06776889-2.85468445 2.37681778-6.42275555 5.59217778-10.7008 9.63584a1326.74104889 1326.74104889 0 0 1-11.06602667 10.34695111l72.92131556 73.27630222c1.78289778-1.54851555 3.80245333-3.44974222 5.82656-5.47384889 1.78403555-1.78289778 3.92760889-3.92533333 6.42275555-6.30442666 2.49514667-2.37795555 5.23264-5.11431111 8.44572445-8.20451556 2.85468445-3.09589333 4.87992889-6.42730667 6.18609778-9.75416889 1.30616889-3.45429333 1.90236445-6.78115555 1.90236444-10.22976 0-3.21422222-0.35384889-6.54563555-0.94890667-9.63697777zM727.52696889 825.42250667c-8.56860445 8.56519111-15.70247111 15.94026667-21.41297778 21.76682666-5.71050667 5.83338667-9.39918222 9.63584-10.94314666 11.18435556-3.68981333 3.68981333-6.42616889 7.01553778-8.44572445 9.99424a65.53258667 65.53258667 0 0 0-5.23946667 9.98855111c-1.30730667 2.37909333-2.97187555 6.66282667-5.11431111 12.96725333a442.55345778 442.55345778 0 0 0-6.42161777 20.57784889c-2.26076445 7.49681778-4.28032 14.63182222-6.18609778 21.53130667-1.90236445 6.89834667-3.20967111 12.25500445-3.68526222 15.8208-1.07064889 6.78115555-0.3584 11.65994667 1.90122666 14.51576889 2.37909333 2.85468445 7.01667555 3.92533333 14.03790222 3.09020444 3.33255111-0.47672889 8.44686222-1.66456889 15.46353778-3.56579555 6.89720889-1.78403555 14.15623111-3.92647111 21.88856889-6.42275556 7.72892445-2.50083555 14.98680889-4.99825778 22.00348445-7.61628444 7.02122667-2.61347555 12.37105778-4.87424 16.06200888-6.66282667 3.68526222-1.54282667 7.13386667-3.68412445 10.58360889-6.30328889 3.33141333-2.61461333 6.30442667-5.11544889 8.92359111-7.49340444 1.07178667-0.83057778 4.28487111-3.92647111 9.75416889-9.39576889 5.47384889-5.47271111 12.37105778-12.48938667 20.70072889-20.93624889a3097.83893333 3097.83893333 0 0 1 28.07125334-28.07580444l31.16714666-31.76106667 83.86446222-84.33550223-72.92245333-73.63584-144.05063111 144.76743112z m0 0" fill="#1296db" p-id="1730"></path></svg>