<?xml version="1.0" standalone="no"?><!DOCTYPE svg PUBLIC "-//W3C//DTD SVG 1.1//EN" "http://www.w3.org/Graphics/SVG/1.1/DTD/svg11.dtd"><svg t="1776413345911" class="icon" viewBox="0 0 1024 1024" version="1.1" xmlns="http://www.w3.org/2000/svg" p-id="7084" xmlns:xlink="http://www.w3.org/1999/xlink" width="200" height="200"><path d="M391.253333 333.354667a21.845333 21.845333 0 0 0-21.888 21.845333v198.4c0 12.074667 9.813333 21.888 21.888 21.888h363.733334c12.074667 0 21.845333-9.813333 21.845333-21.888v-198.4a21.845333 21.845333 0 0 0-21.845333-21.845333H391.253333z m-77.354666 21.845333c0-42.666667 34.645333-77.312 77.354666-77.312h363.733334c42.666667 0 77.312 34.602667 77.312 77.312v198.4a77.312 77.312 0 0 1-77.312 77.354667H391.253333a77.354667 77.354667 0 0 1-77.354666-77.354667v-198.4z" fill="#2B2F36" p-id="7085"></path><path d="M716.586667 454.4a27.733333 27.733333 0 0 1-27.733334 27.733333h-231.210666a27.733333 27.733333 0 1 1 0-55.466666h231.210666a27.733333 27.733333 0 0 1 27.733334 27.733333z" fill="#035DFF" p-id="7086"></path><path d="M115.498667 256a27.733333 27.733333 0 0 1 27.733333-27.733333h66.133333c33.578667 0 60.8 27.221333 60.8 60.8v380.245333c0 2.986667 2.389333 5.376 5.333334 5.376H804.565333a27.733333 27.733333 0 1 1 0 55.466667h-38.4v21.845333a77.312 77.312 0 1 1-154.666666 0v-21.845333h-142.933334v21.845333a77.312 77.312 0 1 1-154.666666 0v-21.845333h-38.4a60.8 60.8 0 0 1-60.8-60.8V289.024a5.333333 5.333333 0 0 0-5.333334-5.333333h-66.133333a27.733333 27.733333 0 0 1-27.733333-27.733334z m551.466666 474.154667v21.845333a21.845333 21.845333 0 1 0 43.733334 0v-21.845333h-43.733334z m-253.866666 0H369.365333v21.845333a21.845333 21.845333 0 1 0 43.733334 0v-21.845333z" fill="#2B2F36" p-id="7087"></path></svg>